<svg width="87" height="87" viewBox="0 0 87 87" fill="none" xmlns="http://www.w3.org/2000/svg">
<g clip-path="url(#clip0_1442_261)">
<path d="M81.6476 0.584167L74.4939 78.0705L43.4996 86.4159L12.5048 78.0705L5.35254 0.584167H81.6476ZM67.2324 16.3398H43.4717H19.2901L20.4465 25.697H43.4717H44.7651L43.4717 26.2353L21.2881 35.4746L22.0238 44.621L43.4717 44.6906L54.9671 44.727L54.2313 56.9226L43.4715 59.9519V59.9423L43.3834 59.9668L32.9921 57.3437L32.3616 49.7733H32.3271H22.6888H22.6548L23.9164 64.3878L43.4719 70.1708V70.1603L43.5071 70.1708L62.9578 64.4931L65.4808 35.4746H43.4719H43.4176L43.4719 35.4511L66.2871 25.697L67.2324 16.3398Z" fill="#6D28D9"/>
</g>
<defs>
<clipPath id="clip0_1442_261">
<rect width="86" height="86" fill="white" transform="translate(0.5 0.5)"/>
</clipPath>
</defs>
</svg>
