<svg width="87" height="87" viewBox="0 0 87 87" fill="none" xmlns="http://www.w3.org/2000/svg">
<g clip-path="url(#clip0_1442_247)">
<path fill-rule="evenodd" clip-rule="evenodd" d="M66.8707 26.3H66.84H29.7913L30.6773 34.9H65.9891C65.4715 42.4336 63.9057 58.3945 63.3312 65.6572L43.4976 71.24V71.2568L43.4537 71.2778L23.607 64.2945L22.2474 47.8H31.9755L32.6641 56.6709L43.4713 60.7H43.4976L54.2872 56.8304L55.3969 43.5H21.8132C21.6509 41.7757 19.5631 19.3856 19.1991 17.7H67.7391C67.4672 20.538 67.1908 23.4534 66.8707 26.3ZM4.7998 0.5L11.8437 78.5362L43.4537 86.5L75.1471 78.3766L82.1998 0.5H4.7998Z" fill="#6D28D9"/>
</g>
<defs>
<clipPath id="clip0_1442_247">
<rect width="86" height="86" fill="white" transform="translate(0.5 0.5)"/>
</clipPath>
</defs>
</svg>
