<svg width="87" height="87" viewBox="0 0 87 87" fill="none" xmlns="http://www.w3.org/2000/svg">
<g clip-path="url(#clip0_1445_270)">
<path fill-rule="evenodd" clip-rule="evenodd" d="M0.669381 0.583984C0.573639 0.597926 0.580694 0.71332 0.58758 0.828883C0.58758 29.3278 0.58758 57.8224 0.58758 86.3206C29.0354 86.5113 57.8327 86.3478 86.4161 86.4022C86.4161 57.7957 86.4161 29.1904 86.4161 0.583984C57.8349 0.583984 29.2508 0.583984 0.669381 0.583984ZM44.154 76.4499C42.1682 78.4519 39.0346 79.6309 35.1796 79.6309C28.8567 79.6309 25.3462 76.5504 23.1053 72.2888C25.2624 70.9115 27.4668 69.5808 29.7139 68.292C30.6303 70.8556 33.726 73.7376 37.2192 71.9633C39.4335 70.8381 39.1779 67.4265 39.1779 63.7238C39.1779 56.0353 39.1779 47.1657 39.1779 40.2296C39.1708 40.1141 39.164 39.9987 39.2589 39.9848C41.8971 39.9848 44.5353 39.9848 47.1729 39.9848C47.1729 46.164 47.1729 53.1538 47.1729 59.726C47.1729 66.8811 47.6842 72.8925 44.154 76.4499ZM79.5623 69.3532C79.1131 76.0525 73.6426 79.6099 66.2642 79.6309C59.0311 79.6517 54.4016 76.4373 51.5782 71.4732C53.6081 70.0762 55.9081 68.9508 58.024 67.6398C59.7171 70.2872 62.6493 72.8317 66.9984 72.4524C69.7079 72.2163 72.8531 70.0077 71.0775 66.6605C70.2163 65.038 68.1354 64.2137 66.2642 63.3977C60.3262 60.807 53.3595 58.4307 54.0258 49.1217C54.2487 46.012 55.6807 43.8265 57.5345 42.2693C59.4344 40.6736 61.979 39.6041 65.3667 39.496C71.5193 39.2989 74.8944 42.0356 77.1966 45.8593C75.2374 47.3527 73.079 48.6489 70.9144 49.9377C70.2041 47.755 66.775 45.628 63.898 46.9195C62.5897 47.5062 61.4141 49.2309 62.1034 51.3243C62.7182 53.1913 65.2258 54.2132 67.2431 55.0774C73.3491 57.691 80.1729 60.2453 79.5623 69.3532Z" fill="#6D28D9"/>
</g>
<defs>
<clipPath id="clip0_1445_270">
<rect width="86" height="86" fill="white" transform="translate(0.5 0.5)"/>
</clipPath>
</defs>
</svg>
