<svg width="133" height="54" viewBox="0 0 133 54" fill="none" xmlns="http://www.w3.org/2000/svg">
<g clip-path="url(#clip0_954_105)">
<mask id="mask0_954_105" style="mask-type:luminance" maskUnits="userSpaceOnUse" x="0" y="0" width="133" height="54">
<path d="M132.3 0H0V54H132.3V0Z" fill="white"/>
</mask>
<g mask="url(#mask0_954_105)">
<path d="M46.3775 39.1549C48.6567 44.8213 42.7276 50.3009 37.279 47.5638L9.00526 33.3604C4.35297 31.0234 4.0897 24.4649 8.53959 21.7607L36.5053 4.76514C41.8838 1.49652 48.3485 6.88871 46.1206 12.7852L42.0236 23.6281C41.4346 25.187 41.4528 26.9111 42.0747 28.4571L46.3775 39.1549Z" fill="url(#paint0_linear_954_105)"/>
<path d="M24.6461 27.2442H22.5918V31.3513H24.7535C25.6692 31.3513 26.346 31.1757 26.7841 30.8244C27.222 30.4732 27.4409 29.9344 27.4409 29.2079C27.4409 27.8989 26.5093 27.2442 24.6461 27.2442ZM22.5918 21.0897V24.5861H24.5266C25.4344 24.5861 26.0873 24.4464 26.4854 24.167C26.8915 23.8876 27.0946 23.4366 27.0946 22.814C27.0946 22.1913 26.8756 21.7483 26.4376 21.4849C25.9997 21.2214 25.299 21.0897 24.3356 21.0897H22.5918ZM19.2594 34.1053V18.3477H24.1444C26.366 18.3477 27.9824 18.667 28.9937 19.3057C30.0049 19.9362 30.5105 20.946 30.5105 22.335C30.5105 23.269 30.2915 24.0393 29.8536 24.646C29.4157 25.2526 28.8264 25.6198 28.0859 25.7476V25.8553C29.0653 26.0708 29.7779 26.482 30.2239 27.0886C30.6777 27.6953 30.9046 28.5095 30.9046 29.5313C30.9046 30.9761 30.3831 32.1017 29.34 32.9079C28.3048 33.7061 26.9035 34.1053 25.1358 34.1053H19.2594ZM40.1354 20.8861C38.8136 20.8861 37.8143 21.3332 37.1375 22.2272C36.4686 23.1213 36.1342 24.4464 36.1342 26.2025C36.1342 29.7468 37.46 31.5189 40.1115 31.5189C42.771 31.5189 44.1008 29.7468 44.1008 26.2025C44.1008 22.6583 42.7789 20.8861 40.1354 20.8861ZM34.5695 20.1797C35.8754 18.7987 37.7347 18.1083 40.1473 18.1083C42.56 18.1083 44.4033 18.8067 45.6773 20.2037C46.9593 21.6006 47.6003 23.6042 47.6003 26.2145C47.6003 28.8248 46.9554 30.8284 45.6654 32.2254C44.3755 33.6223 42.5242 34.3208 40.1115 34.3208C37.7068 34.3208 35.8595 33.6223 34.5695 32.2254C33.2796 30.8284 32.6346 28.8169 32.6346 26.1906C32.6346 23.5643 33.2796 21.5607 34.5695 20.1797ZM54.8953 31.3513C58.1043 31.3513 59.7087 29.6231 59.7087 26.1666C59.7087 22.782 58.2198 21.0897 55.2417 21.0897H53.4741V31.3513H54.8953ZM55.0745 18.3477C57.6305 18.3477 59.6171 19.0262 61.0345 20.3833C62.4598 21.7323 63.1724 23.6681 63.1724 26.1906C63.1724 28.7051 62.4359 30.6528 60.9628 32.0337C59.4897 33.4147 57.3638 34.1053 54.5848 34.1053H50.1417V18.3477H55.0745ZM69.0536 34.1053H65.7213V18.3477H69.0536V34.1053ZM78.9677 20.9101C77.7176 20.9101 76.7462 21.3811 76.0534 22.323C75.3687 23.273 75.0262 24.5901 75.0262 26.2744C75.0262 29.7867 76.34 31.5428 78.9677 31.5428C80.0825 31.5428 81.4202 31.2674 82.9808 30.7167V33.5186C81.6988 34.0533 80.2576 34.3208 78.6572 34.3208C76.3719 34.3208 74.6241 33.6263 73.4138 32.2373C72.2035 30.8404 71.5983 28.8448 71.5983 26.2504C71.5745 23.7918 72.2353 21.8161 73.581 20.3234C74.9346 18.8227 76.7302 18.0883 78.9677 18.1202C80.4965 18.1202 82.0333 18.4914 83.5781 19.2337L82.5031 21.9518C81.0459 21.2573 79.8675 20.9101 78.9677 20.9101ZM98.4974 18.3477V34.1053H95.1766V27.3041H88.954V34.1053H85.6216V18.3477H88.954V24.5262H95.1766V18.3477H98.4974ZM111.415 18.3477H114.389L108.537 34.1053H105.563L111.415 18.3477ZM114.733 31.9141V29.3397L122.09 26.3103L114.733 22.8978V20.3114L125.411 25.6517V27.1964L114.733 31.9141Z" fill="#F0F0F0"/>
</g>
</g>
<defs>
<linearGradient id="paint0_linear_954_105" x1="54.0791" y1="10.4525" x2="2.91293" y2="42.8503" gradientUnits="userSpaceOnUse">
<stop stop-color="#3D0066"/>
<stop offset="0.5" stop-color="#7A24AD"/>
<stop offset="1" stop-color="#4A19D3"/>
</linearGradient>
<clipPath id="clip0_954_105">
<rect width="132.3" height="54" fill="white"/>
</clipPath>
</defs>
</svg>
