<svg width="87" height="87" viewBox="0 0 87 87" fill="none" xmlns="http://www.w3.org/2000/svg">
<g clip-path="url(#clip0_1446_293)">
<path d="M64.3254 81.1384C64.0056 81.3077 64.0325 81.3615 64.3389 81.2056C64.4383 81.1653 64.5216 81.1089 64.5942 81.0417C64.5942 80.9852 64.5942 80.9852 64.3254 81.1384ZM64.9704 80.789C64.8173 80.9154 64.8173 80.9154 65 80.832C65.0967 80.7756 65.1828 80.7219 65.1828 80.7057C65.1828 80.6332 65.1397 80.6493 64.9704 80.789ZM65.3897 80.5364C65.2365 80.6627 65.2365 80.6627 65.4193 80.5794C65.5187 80.523 65.602 80.4639 65.602 80.4504C65.602 80.3832 65.559 80.3967 65.3897 80.5364ZM65.8143 80.2865C65.6611 80.4128 65.6611 80.4128 65.8385 80.3268C65.9379 80.273 66.0212 80.2166 66.0212 80.2005C66.0212 80.1333 65.9782 80.1467 65.8143 80.2865ZM66.3867 79.9075C66.0938 80.1037 65.9917 80.23 66.2604 80.0903C66.4405 79.9801 66.7469 79.7382 66.6931 79.7382C66.5776 79.7812 66.4808 79.8538 66.3841 79.9075H66.3867ZM40.6862 0.529549C40.49 0.542987 39.9014 0.596737 39.3854 0.639737C27.1627 1.74699 15.7274 8.32599 8.47919 18.4605C4.47213 24.0156 1.87063 30.4683 0.889687 37.2435C0.543 39.6085 0.5 40.3072 0.5 43.5134C0.5 46.7169 0.543 47.4049 0.889687 49.7699C3.2305 65.9245 14.7223 79.4856 30.299 84.5112C33.1021 85.4062 36.0395 86.0243 39.3854 86.4032C40.6862 86.543 46.3111 86.543 47.6119 86.4032C53.3954 85.7582 58.2786 84.3312 63.1107 81.8667C63.8524 81.4905 63.9922 81.391 63.8927 81.3077C61.5277 78.1875 59.2057 75.0647 56.8811 71.9149L50.0091 62.635L41.4011 49.8828C38.5308 45.615 35.6498 41.358 32.7231 37.1333C32.6936 37.1333 32.6559 42.8012 32.6398 49.7135C32.6102 61.8207 32.6102 62.3125 32.4571 62.592C32.3039 62.9279 32.0512 63.2074 31.7153 63.3633C31.4492 63.4896 31.2101 63.5165 29.9389 63.5165H28.4849L28.106 63.28C27.8695 63.1268 27.6733 62.9145 27.547 62.6645L27.3643 62.2856L27.3777 45.4323L27.4072 28.579L27.6733 28.243C27.8426 28.0361 28.0522 27.8668 28.2887 27.7405C28.6408 27.5712 28.7806 27.5443 30.2345 27.5443C31.9411 27.5443 32.2232 27.6115 32.6721 28.1033C36.1551 33.2955 39.6273 38.5012 43.0431 43.723C48.6304 52.194 56.2576 63.753 60.0066 69.4236L66.8248 79.7409L67.1608 79.5179C70.4368 77.3329 73.4173 74.7314 75.9892 71.7644C81.4072 65.5617 84.9224 57.9319 86.113 49.7887C86.4597 47.4237 86.5027 46.7223 86.5027 43.5188C86.5027 40.3126 86.4597 39.6273 86.113 37.2623C83.7722 21.1077 72.2804 7.54661 56.7037 2.5183C53.7904 1.59649 50.7939 0.967612 47.7597 0.645112C46.9454 0.561799 41.3876 0.462362 40.6889 0.534924L40.6862 0.529549ZM58.2812 26.5365C58.6871 26.73 58.9934 27.0955 59.1332 27.5147C59.2057 27.7405 59.2192 32.414 59.2057 42.941L59.1762 58.0555L56.5182 53.9705L53.8442 49.8828V38.9097C53.8442 31.7959 53.8738 27.8077 53.9114 27.6115C54.0377 27.1627 54.3441 26.7864 54.7526 26.5499C55.0858 26.3806 55.2148 26.3672 56.5451 26.3672C57.7894 26.3672 58.0018 26.3806 58.2812 26.5365Z" fill="#6D28D9"/>
</g>
<defs>
<clipPath id="clip0_1446_293">
<rect width="86" height="86" fill="white" transform="translate(0.5 0.5)"/>
</clipPath>
</defs>
</svg>
