<svg width="87" height="87" viewBox="0 0 87 87" fill="none" xmlns="http://www.w3.org/2000/svg">
<g clip-path="url(#clip0_1445_279)">
<path d="M43.9909 35.9016C45.4666 35.9017 46.9092 36.3383 48.1373 37.1566C49.3653 37.9749 50.3238 39.1381 50.8921 40.5C51.4604 41.8618 51.6131 43.3614 51.3309 44.8098C51.0488 46.2583 50.3445 47.5909 49.3066 48.6399C48.2687 49.6889 46.9436 50.4073 45.4983 50.7049C44.0529 51.0024 42.5518 50.8657 41.184 50.3119C39.8162 49.7581 38.6428 48.812 37.8115 47.5928C36.9803 46.3735 36.5283 44.9356 36.5125 43.46C36.5072 42.4727 36.6965 41.494 37.0695 40.5798C37.4424 39.6656 37.9918 38.8338 38.6863 38.1319C39.3807 37.4301 40.2066 36.8719 41.1168 36.4892C42.0269 36.1065 43.0036 35.9068 43.9909 35.9016ZM25.4748 75.4532C27.9943 76.9729 33.4731 74.6534 39.8718 68.6547C37.7332 66.2244 35.7177 63.6884 33.8331 61.0563C30.6074 60.695 27.4035 60.161 24.2351 59.4566C22.1955 68.0148 22.9554 73.8936 25.4748 75.4532ZM28.3142 52.4981L27.1545 50.4585C26.7024 51.5818 26.3152 52.7301 25.9947 53.8978C27.0745 54.1377 28.2742 54.3377 29.514 54.5377L28.3142 52.4981ZM54.4687 49.4587L57.708 43.46L54.4687 37.4613C53.2689 35.3417 51.9892 33.4621 50.8295 31.5825C48.6699 31.4625 46.3904 31.4625 43.9909 31.4625C41.5914 31.4625 39.3119 31.4625 37.1524 31.4625C35.9926 33.3421 34.7129 35.2217 33.5131 37.3413L30.2738 43.46L33.5131 49.4587C34.7129 51.5783 35.9926 53.4579 37.1524 55.3375C39.3119 55.3375 41.5914 55.3375 43.9909 55.3375C46.3904 55.3375 48.6699 55.3375 50.8295 55.3375C51.9892 53.4579 53.2689 51.5783 54.4687 49.4587ZM43.9909 22.5844C43.2311 23.4642 42.4312 24.384 41.6314 25.4638H46.3504C45.5506 24.384 44.7507 23.4642 43.9909 22.5844ZM43.9909 64.3356C44.7507 63.4558 45.5506 62.536 46.3504 61.4562H41.6314C42.4312 62.536 43.2311 63.4558 43.9909 64.3356ZM62.467 11.4668C59.9875 9.94709 54.4687 12.2666 48.11 18.2653C50.2487 20.6956 52.2641 23.2316 54.1488 25.8637C57.3715 26.1721 60.5754 26.6527 63.7467 27.3034C65.7863 18.7452 65.0265 12.8665 62.467 11.3068M59.6676 34.2619L60.8273 36.3015C61.2794 35.1782 61.6667 34.0299 61.9871 32.8622C60.9073 32.6223 59.7076 32.4223 58.4678 32.2224L59.6676 34.2619ZM65.4664 6.26786C71.3451 9.62715 71.985 18.4653 69.4655 28.7831C79.6234 31.7825 86.9418 36.7814 86.9418 43.5C86.9418 50.2186 79.6234 55.2175 69.4655 58.2169C71.945 68.5347 71.3051 77.3728 65.4664 80.7321C59.6276 84.0914 51.6693 80.2522 43.9909 72.9338C36.3125 80.2522 28.3542 84.0914 22.4755 80.7321C16.5967 77.3728 15.9968 68.7347 18.4763 58.2169C8.31845 55.2175 1 50.2186 1 43.5C1 36.7814 8.31845 31.7425 18.4763 28.7431C15.9968 18.4253 16.6367 9.58716 22.4755 6.22787C28.3142 2.86858 36.3125 6.70777 43.9909 14.0262C51.6693 6.70777 59.6276 2.86858 65.4664 6.22787M64.3066 43.46C65.6955 46.404 66.9237 49.4211 67.9858 52.4981C76.3841 49.9786 81.1031 46.3794 81.1031 43.46C81.1031 40.5406 76.2641 36.9414 67.9858 34.4219C66.9237 37.4989 65.6955 40.516 64.3066 43.46ZM23.6752 43.46C22.2863 40.516 21.0581 37.4989 19.996 34.4219C11.5978 36.9414 6.87876 40.5406 6.87876 43.46C6.87876 46.3794 11.7177 49.9786 19.996 52.4981C21.0581 49.4211 22.2863 46.404 23.6752 43.46ZM59.6676 52.4981L58.4678 54.5377C59.7076 54.5377 60.9073 54.1377 61.9871 53.8978C61.6667 52.7301 61.2794 51.5818 60.8273 50.4585L59.6676 52.4981ZM47.9901 68.6547C54.3487 74.6534 59.9875 76.9729 62.347 75.4532C64.7065 73.9336 65.6663 68.1748 63.6268 59.4566C60.4554 60.1073 57.2515 60.5879 54.0288 60.8963C52.1485 63.583 50.133 66.1724 47.9901 68.6547ZM28.3142 34.4219L29.514 32.3823C28.2742 32.3823 27.0745 32.7823 25.9947 33.0222C26.3152 34.1899 26.7024 35.3382 27.1545 36.4615L28.3142 34.4219ZM39.9918 18.2653C33.5131 12.2666 27.9943 9.94709 25.4748 11.4668C22.9554 12.9864 22.1955 18.7452 24.2351 27.4634C27.4065 26.8127 30.6104 26.3321 33.8331 26.0237C35.7523 23.3342 37.8079 20.7447 39.9918 18.2653Z" fill="#6D28D9"/>
</g>
<defs>
<clipPath id="clip0_1445_279">
<rect width="86" height="86" fill="white" transform="translate(0.5 0.5)"/>
</clipPath>
</defs>
</svg>
