<svg width="87" height="87" viewBox="0 0 87 87" fill="none" xmlns="http://www.w3.org/2000/svg">
<g clip-path="url(#clip0_1446_320)">
<path d="M81.3344 40.0347V21.2295C81.3344 17.7169 78.6786 13.7331 75.3802 12.4052L51.5202 2.63849C46.1657 0.453835 40.1257 0.453835 34.7712 2.63849L10.9114 12.4052C7.65586 13.7331 5 17.7169 5 21.2295V40.0347C5 60.9817 20.207 80.6008 40.9825 86.3408C42.3961 86.7264 43.9382 86.7264 45.3518 86.3408C66.1275 80.6008 81.3344 60.9817 81.3344 40.0347ZM46.3799 47.531V58.797C46.3799 60.5533 44.9234 62.0098 43.1671 62.0098C41.4108 62.0098 39.9544 60.5533 39.9544 58.797V47.531C35.6279 46.1603 32.4582 42.1336 32.4582 37.3788C32.4582 31.4674 37.2557 26.6697 43.1671 26.6697C49.0786 26.6697 53.8763 31.4674 53.8763 37.3788C53.8763 42.1765 50.7064 46.1603 46.3799 47.531Z" fill="#6D28D9"/>
</g>
<defs>
<clipPath id="clip0_1446_320">
<rect width="86" height="86" fill="white" transform="translate(0.5 0.5)"/>
</clipPath>
</defs>
</svg>
