<svg width="87" height="87" viewBox="0 0 87 87" fill="none" xmlns="http://www.w3.org/2000/svg">
<g clip-path="url(#clip0_1446_287)">
<path d="M0.5 43.5V86.5H86.5V0.5H0.5V43.5ZM69.7999 40.0708C71.9848 40.6163 73.6484 41.5973 75.1883 43.1775C75.9731 44.016 77.1475 45.5559 77.2469 45.9349C77.2738 46.0477 73.5382 48.5525 71.2699 49.9527C71.1866 50.0091 70.8507 49.6597 70.4852 49.1115C69.3806 47.5017 68.2169 46.8029 66.4405 46.6766C63.8363 46.5073 62.1566 47.8672 62.1701 50.1489C62.1566 50.7079 62.2829 51.2696 62.5329 51.7587C63.108 52.9492 64.1857 53.6614 67.5155 55.1046C73.6753 57.7491 76.3063 59.4987 77.943 61.9766C79.7759 64.7474 80.1817 69.171 78.9508 72.4739C77.5802 76.0429 74.1913 78.4778 69.4317 79.276C67.9616 79.5421 64.4625 79.4991 62.8796 79.2061C59.4234 78.5907 56.1474 76.8814 54.1317 74.6427C53.3336 73.7747 51.7936 71.493 51.8931 71.3398C51.9361 71.2834 52.2854 71.0603 52.6778 70.8346C53.0702 70.6088 54.5107 69.7703 55.8706 68.9856L58.3484 67.5451L58.8671 68.3137C59.5954 69.4183 61.1757 70.9313 62.1297 71.4339C64.8737 72.8905 68.6389 72.6809 70.5013 71.0146C71.2565 70.3857 71.6784 69.4183 71.622 68.44C71.622 67.4456 71.4957 66.9995 70.977 66.2551C70.3051 65.3037 68.9479 64.4921 65.0699 62.8124C60.6328 60.8935 58.7139 59.7191 56.9805 57.8298C55.8894 56.5828 55.0777 55.1154 54.6155 53.5324C54.293 52.315 54.2097 49.262 54.4623 48.0446C55.3734 43.7472 58.6199 40.7668 63.28 39.8853C64.7931 39.5924 68.3191 39.7026 69.8026 40.0681L69.7999 40.0708ZM49.6167 43.6693L49.6436 47.1819H38.4448V78.9992H30.5221V47.1819H19.3394V43.7392C19.3394 41.8203 19.3824 40.2266 19.4361 40.1836C19.4791 40.1272 26.2812 40.1003 34.5399 40.1138L49.5737 40.1567L49.6167 43.6693Z" fill="#6D28D9"/>
</g>
<defs>
<clipPath id="clip0_1446_287">
<rect width="86" height="86" fill="white" transform="translate(0.5 0.5)"/>
</clipPath>
</defs>
</svg>
