<svg width="87" height="87" viewBox="0 0 87 87" fill="none" xmlns="http://www.w3.org/2000/svg">
<path d="M76.5434 11H10.363C7.87975 11 5.49825 11.9865 3.74235 13.7424C1.98645 15.4982 1 17.8798 1 20.363V66.887C1 69.3703 1.98645 71.7518 3.74235 73.5077C5.49825 75.2635 7.87975 76.25 10.363 76.25H76.5434C79.0266 76.25 81.4082 75.2635 83.1641 73.5077C84.92 71.7518 85.9064 69.3703 85.9064 66.887V20.363C85.9064 17.8798 84.92 15.4982 83.1641 13.7424C81.4082 11.9865 79.0266 11 76.5434 11ZM10.363 14.5475H76.5434C78.0858 14.5475 79.565 15.1602 80.6556 16.2508C81.7462 17.3414 82.359 18.8206 82.359 20.363V24.5501H4.54746V20.363C4.54746 18.8206 5.16016 17.3414 6.25078 16.2508C7.3414 15.1602 8.8206 14.5475 10.363 14.5475ZM76.5434 72.7025H10.363C8.8206 72.7025 7.3414 72.0898 6.25078 70.9992C5.16016 69.9086 4.54746 68.4294 4.54746 66.887V28.0976H82.359V66.887C82.359 67.6507 82.2085 68.407 81.9163 69.1125C81.624 69.8181 81.1956 70.4592 80.6556 70.9992C80.1156 71.5392 79.4745 71.9676 78.7689 72.2599C78.0634 72.5521 77.3071 72.7025 76.5434 72.7025Z" fill="#6D28D9"/>
<path d="M10.3611 21.875C10.7602 21.9102 11.1605 21.8234 11.5091 21.626C11.8578 21.4286 12.1382 21.1299 12.3133 20.7696C12.4884 20.4092 12.5499 20.0042 12.4897 19.6081C12.4295 19.212 12.2503 18.8436 11.976 18.5516C11.7017 18.2596 11.3452 18.0578 10.9536 17.973C10.5621 17.8881 10.154 17.9242 9.78343 18.0765C9.41285 18.2287 9.09728 18.49 8.87849 18.8256C8.6597 19.1612 8.54803 19.5554 8.55826 19.9559C8.57066 20.4413 8.76127 20.9052 9.09376 21.2592C9.42624 21.6131 9.87734 21.8323 10.3611 21.875Z" fill="#6D28D9"/>
<path d="M15.3081 21.875C15.7039 21.8865 16.094 21.7788 16.428 21.5661C16.7619 21.3533 17.0242 21.0452 17.1811 20.6816C17.3379 20.318 17.3819 19.9157 17.3075 19.5269C17.2331 19.138 17.0436 18.7804 16.7636 18.5004C16.4836 18.2204 16.126 18.0309 15.7371 17.9565C15.3482 17.8821 14.946 17.9261 14.5824 18.0829C14.2188 18.2397 13.9107 18.5021 13.6979 18.836C13.4851 19.17 13.3775 19.5601 13.389 19.9559C13.4036 20.4602 13.6105 20.9399 13.9673 21.2967C14.3241 21.6535 14.8038 21.8603 15.3081 21.875Z" fill="#6D28D9"/>
<path d="M20.1905 21.875C20.5862 21.8865 20.9764 21.7788 21.3103 21.5661C21.6442 21.3533 21.9066 21.0452 22.0634 20.6816C22.2202 20.318 22.2642 19.9157 22.1898 19.5269C22.1154 19.138 21.9259 18.7804 21.6459 18.5004C21.3659 18.2204 21.0084 18.0309 20.6195 17.9565C20.2306 17.8821 19.8283 17.9261 19.4647 18.0829C19.1011 18.2397 18.793 18.5021 18.5802 18.836C18.3675 19.17 18.2599 19.5601 18.2713 19.9559C18.286 20.4602 18.4929 20.9399 18.8496 21.2967C19.2064 21.6535 19.6861 21.8603 20.1905 21.875Z" fill="#6D28D9"/>
<path d="M49.2681 45.1951L47 50.3128L44.6738 45.1951C44.6738 45.1951 44.6738 45.1951 44.2668 44.788C43.8597 44.381 44.2668 44.4391 43.8015 44.3228C43.8015 44.3228 43.3944 44.3228 43.1618 44.3228C42.9369 44.238 42.6888 44.238 42.4639 44.3228C42.4639 44.3228 42.115 44.6717 41.9987 44.788C41.8824 44.9044 41.6498 44.788 41.5335 45.1951L39.2654 50.3128L36.9974 45.1951C36.9153 44.9448 36.781 44.7147 36.6033 44.5201C36.4256 44.3255 36.2087 44.1709 35.9668 44.0664C35.7249 43.962 35.4636 43.9101 35.2001 43.9142C34.9367 43.9183 34.6771 43.9783 34.4385 44.0902C34.2274 44.1844 34.0372 44.3196 33.8788 44.4879C33.7204 44.6563 33.597 44.8544 33.5159 45.0708C33.4347 45.2873 33.3974 45.5177 33.406 45.7487C33.4146 45.9797 33.4691 46.2066 33.5662 46.4164L37.6371 55.7212C37.8318 56.0598 38.1127 56.3407 38.4512 56.5354H39.1491H39.847C40.2069 56.3491 40.5087 56.0675 40.7193 55.7212L42.9873 50.5454L45.3135 55.7212C45.5082 56.0598 45.7892 56.3407 46.1277 56.5354C46.3762 56.5947 46.6352 56.5947 46.8837 56.5354H47.5816C47.9202 56.3407 48.2011 56.0598 48.3958 55.7212L52.3503 46.9398C52.527 46.5071 52.5288 46.0226 52.3552 45.5886C52.1816 45.1547 51.8462 44.8051 51.4198 44.6136C51.0497 44.4443 50.6319 44.4097 50.239 44.5159C49.846 44.6221 49.5026 44.8624 49.2681 45.1951Z" fill="#6D28D9"/>
<path d="M69.1569 45.1952L66.8888 50.3128L64.5626 45.1952C64.5626 45.1952 64.2719 45.1952 64.1556 44.7881C64.0393 44.381 64.1556 44.4391 63.6903 44.3228C63.4654 44.238 63.2173 44.238 62.9925 44.3228C62.9925 44.3228 62.5854 44.3228 62.3528 44.3228C62.3528 44.3228 62.062 44.6136 61.8875 44.7881C61.713 44.9625 61.5386 44.7881 61.4804 45.1952L59.1542 50.3128L56.8862 45.1952C56.792 44.9841 56.6568 44.7938 56.4884 44.6354C56.3201 44.477 56.1219 44.3537 55.9055 44.2725C55.6891 44.1913 55.4587 44.154 55.2277 44.1626C54.9967 44.1713 54.7697 44.2257 54.56 44.3228C54.3438 44.4115 54.1476 44.5428 53.9831 44.7087C53.8186 44.8747 53.6891 45.072 53.6023 45.289C53.5155 45.5059 53.4732 45.7381 53.4779 45.9718C53.4826 46.2054 53.5341 46.4357 53.6295 46.649L57.4677 55.7212C57.6624 56.0598 57.9433 56.3407 58.2819 56.5354H58.9798C59.2283 56.5947 59.4873 56.5947 59.7358 56.5354C60.2025 56.3993 60.6113 56.1132 60.8989 55.7212L63.2251 50.5454L65.4931 55.7212C65.6878 56.0598 65.9687 56.3407 66.3073 56.5354C66.5565 56.5888 66.8141 56.5888 67.0633 56.5354H67.7612C68.1163 56.3423 68.4164 56.0622 68.6335 55.7212L72.5299 46.649C72.6253 46.4357 72.6768 46.2054 72.6815 45.9718C72.6862 45.7381 72.6438 45.5059 72.5571 45.289C72.4703 45.072 72.3408 44.8747 72.1763 44.7087C72.0118 44.5428 71.8156 44.4115 71.5994 44.3228C71.3842 44.2067 71.147 44.137 70.9031 44.1185C70.6593 44.0999 70.4142 44.1328 70.1839 44.2151C69.9536 44.2973 69.7431 44.4271 69.5662 44.5959C69.3893 44.7648 69.2498 44.9689 69.1569 45.1952Z" fill="#6D28D9"/>
<path d="M29.2601 45.1952L26.9921 50.3128L24.724 45.1952C24.5952 45.0475 24.4366 44.9286 24.2588 44.8462C24.1943 44.5486 24.0301 44.2819 23.7935 44.0902C23.5686 44.0054 23.3206 44.0054 23.0957 44.0902C23.0957 44.0902 22.6886 44.0902 22.456 44.0902L21.9907 44.5555C21.9907 44.5555 21.6418 44.5555 21.5836 44.9626L19.2574 50.0802L16.9894 44.9626C16.9013 44.7113 16.7568 44.4835 16.5671 44.2967C16.3773 44.1099 16.1473 43.969 15.8947 43.8848C15.6421 43.8006 15.3736 43.7754 15.1098 43.811C14.8459 43.8466 14.5937 43.9421 14.3724 44.0902C13.946 44.2817 13.6106 44.6313 13.437 45.0653C13.2635 45.4993 13.2652 45.9837 13.4419 46.4164L17.5709 55.7212C17.7656 56.0598 18.0465 56.3407 18.3851 56.5354H19.083C19.3315 56.5947 19.5905 56.5947 19.839 56.5354H20.1879C20.4415 56.3121 20.6404 56.0335 20.7695 55.7212L23.0957 50.5454L25.3637 55.7212C25.5584 56.0598 25.8393 56.3407 26.1779 56.5354H26.8757H27.5736C27.9977 56.3776 28.363 56.0934 28.6204 55.7212L32.5168 46.9398C32.7176 46.7279 32.8621 46.469 32.9369 46.1869C33.0117 45.9047 33.0145 45.6082 32.9451 45.3247C32.8756 45.0411 32.7362 44.7795 32.5394 44.5639C32.3427 44.3482 32.0949 44.1853 31.8189 44.0902C31.5804 43.9783 31.3208 43.9183 31.0574 43.9142C30.7939 43.9101 30.5326 43.962 30.2907 44.0665C30.0488 44.1709 29.8318 44.3256 29.6542 44.5201C29.4765 44.7147 29.3422 44.9448 29.2601 45.1952Z" fill="#6D28D9"/>
</svg>
